<svg width="24" height="24" viewBox="0 0 24 24" fill="none" xmlns="http://www.w3.org/2000/svg">
<path d="M18.3278 19.7759L18.3046 19.7262L18.3387 19.7682C18.6127 19.5452 18.8073 19.2819 18.8931 18.9809C18.9792 18.6788 18.953 18.3486 18.8027 17.9984L18.8034 17.9981L18.7974 17.9878L17.3681 15.5095L17.3681 15.5095L17.3672 15.5079C17.2001 15.2302 16.9209 15.0486 16.6106 14.9484C16.3002 14.8481 15.9515 14.8268 15.6324 14.8752L15.6227 14.8767L15.6135 14.88C15.2898 14.9967 14.9634 15.1264 14.6389 15.2554C14.4292 15.3387 14.2203 15.4217 14.0135 15.5006C13.608 15.5502 13.254 15.2858 12.9363 14.879L12.9358 14.8785C12.5935 14.4465 12.265 13.8659 11.9585 13.3243C11.8856 13.1955 11.814 13.0689 11.7437 12.9471C11.3828 12.3213 10.9432 11.5572 10.6977 10.9026L10.6913 10.8855C10.6199 10.6929 10.5419 10.4828 10.5157 10.2763C10.4895 10.0693 10.517 9.87909 10.6476 9.72131C10.8063 9.59084 10.9826 9.45077 11.1664 9.30479C11.438 9.08896 11.726 8.86023 11.9971 8.63057L11.9977 8.63122L12.0065 8.62153C12.4443 8.13999 12.6141 7.42649 12.3282 6.77197L12.3288 6.77172L12.3232 6.76204L10.8957 4.28666C10.7534 3.99831 10.4301 3.79735 10.0979 3.70732C9.76513 3.61713 9.38746 3.62868 9.13101 3.81069L9.13099 3.81066L9.12883 3.81229C8.97705 3.92631 8.80038 4.0496 8.60935 4.18291C8.55341 4.22194 8.49624 4.26184 8.43811 4.30261C8.18256 4.48184 7.91027 4.67673 7.64983 4.88519C7.13278 5.29906 6.6484 5.7771 6.43873 6.30789C5.97566 7.36872 6.20573 8.7271 6.71029 10.1621L6.80462 10.1289L6.71029 10.1621C7.21726 11.6039 8.03075 13.1549 8.87155 14.6129C9.71948 16.0832 10.6454 17.4839 11.6331 18.5947C12.6195 19.704 13.6757 20.5332 14.7861 20.8457L14.7859 20.8466L14.7993 20.8484C15.9298 21.007 17.0678 20.5435 18.3278 19.7759ZM16.7866 15.8556L18.1984 18.3141C18.2561 18.502 18.2725 18.656 18.2413 18.7934C18.2104 18.9291 18.1302 19.061 17.971 19.1994C16.7789 19.8432 15.7502 20.2442 14.9478 20.1847C14.039 19.9209 13.0852 19.1726 12.1461 18.1197C11.2056 17.0654 10.2893 15.7162 9.4575 14.274C8.62525 12.8308 7.83508 11.3112 7.35215 9.93762C6.86857 8.56229 6.72514 7.37063 7.06648 6.58228L7.06699 6.58107C7.23448 6.17993 7.59963 5.81058 8.05252 5.44836C8.32133 5.23338 8.61078 5.02836 8.9011 4.82272C9.09751 4.68359 9.29433 4.54418 9.48541 4.40122C9.64975 4.36149 9.79663 4.35044 9.9286 4.38024C10.0612 4.41018 10.187 4.48319 10.3047 4.62707L11.7297 7.09811C11.8435 7.468 11.7821 7.8093 11.5183 8.14298C11.4104 8.22992 11.3023 8.31682 11.1942 8.40378C10.8721 8.66263 10.5494 8.92206 10.2308 9.18487C9.93324 9.41062 9.83775 9.75579 9.84033 10.1065C9.8429 10.4574 9.94306 10.8299 10.0548 11.137L10.0552 11.138C10.3299 11.8699 10.7893 12.668 11.1485 13.2908L11.2351 13.2409L11.1485 13.2908C11.2038 13.3868 11.261 13.4872 11.3198 13.5906C11.6362 14.1465 12.0017 14.7887 12.4054 15.2983L12.4056 15.2986C12.8183 15.815 13.4122 16.3527 14.2392 16.138L14.2394 16.1387L14.2503 16.1344L15.7849 15.5383C16.1803 15.5133 16.5293 15.5547 16.7866 15.8556Z" fill="black" stroke="black" stroke-width="0.2"/>
</svg>
